<?xml version="1.0" encoding="UTF-8" standalone="no"?>
<!DOCTYPE svg PUBLIC "-//W3C//DTD SVG 1.1//EN" "http://www.w3.org/Graphics/SVG/1.1/DTD/svg11.dtd">
<!-- Generated by Microsoft Visio, SVG Export Common Service Pattern.svg Page-4 -->
<svg xmlns="http://www.w3.org/2000/svg" xmlns:xlink="http://www.w3.org/1999/xlink" xmlns:ev="http://www.w3.org/2001/xml-events"
		xmlns:v="http://schemas.microsoft.com/visio/2003/SVGExtensions/" width="11.6929in" height="8.26772in"
		viewBox="0 0 841.89 595.276" xml:space="preserve" color-interpolation-filters="sRGB" class="st24">
	<v:documentProperties v:langID="1033" v:metric="true" v:viewMarkup="false">
		<v:userDefs>
			<v:ud v:nameU="msvSubprocessMaster" v:prompt="" v:val="VT4(Rectangle)"/>
			<v:ud v:nameU="msvNoAutoConnect" v:val="VT0(1):26"/>
		</v:userDefs>
	</v:documentProperties>

	<style type="text/css">
	<![CDATA[
		.st1 {fill:none;stroke:#262626;stroke-width:0.25}
		.st2 {fill:#4672c4;stroke:#c7c8c8;stroke-width:0.25}
		.st3 {fill:#feffff;font-family:Calibri;font-size:1.00001em}
		.st4 {font-size:1em}
		.st5 {fill:#f4b183;stroke:#c7c8c8;stroke-width:0.25}
		.st6 {fill:#a5a5a5;stroke:#c7c8c8;stroke-width:0.25}
		.st7 {fill:none;stroke:none;stroke-width:0.25}
		.st8 {fill:#4672c4;font-family:Calibri;font-size:1.00001em;font-weight:bold}
		.st9 {fill:#7f7f7f;stroke:#c7c8c8;stroke-width:0.25}
		.st10 {marker-end:url(#mrkr13-42);stroke:#4672c4;stroke-linecap:round;stroke-linejoin:round;stroke-width:1}
		.st11 {fill:#4672c4;fill-opacity:1;stroke:#4672c4;stroke-opacity:1;stroke-width:0.28409090909091}
		.st12 {fill:url(#grad0-82);stroke:none;stroke-width:34}
		.st13 {fill:#9cebff;stroke:none;stroke-width:34}
		.st14 {fill:#f2f2f2;stroke:none;stroke-width:34}
		.st15 {fill:#0078d4;stroke:none;stroke-width:10.0328}
		.st16 {fill:#0063b1;stroke:none;stroke-width:0.75}
		.st17 {fill:#ffffff;stroke:none;stroke-width:0.75}
		.st18 {fill:#4672c4;font-family:Calibri;font-size:1.00001em}
		.st19 {fill:#6d9e00;stroke:none;stroke-linecap:round;stroke-linejoin:round;stroke-width:0.75}
		.st20 {fill:#ffffff;stroke:none;stroke-width:0.25}
		.st21 {fill:#4672c4;font-family:Calibri;font-size:1.5em;font-weight:bold}
		.st22 {fill:#718bcc;stroke:#718bcc;stroke-linecap:round;stroke-linejoin:round;stroke-width:0.25}
		.st23 {stroke:#4672c4;stroke-dasharray:15,9;stroke-linecap:round;stroke-linejoin:round;stroke-width:1}
		.st24 {fill:none;fill-rule:evenodd;font-size:12px;overflow:visible;stroke-linecap:square;stroke-miterlimit:3}
	]]>
	</style>

	<defs id="Patterns_And_Gradients">
		<linearGradient id="grad0-82" x1="0" y1="0" x2="1" y2="0" gradientTransform="rotate(-90 0.5 0.5)">
			<stop offset="0" stop-color="#0078d4" stop-opacity="1"/>
			<stop offset="0.16" stop-color="#1380da" stop-opacity="1"/>
			<stop offset="0.53" stop-color="#3c91e5" stop-opacity="1"/>
			<stop offset="0.82" stop-color="#559cec" stop-opacity="1"/>
			<stop offset="1" stop-color="#5ea0ef" stop-opacity="1"/>
		</linearGradient>
	</defs>
	<defs id="Markers">
		<g id="lend13">
			<path d="M 3 1 L 0 0 L 3 -1 L 3 1 " style="stroke:none"/>
		</g>
		<marker id="mrkr13-42" class="st11" v:arrowType="13" v:arrowSize="2" v:setback="10.56" refX="-10.56" orient="auto"
				markerUnits="strokeWidth" overflow="visible">
			<use xlink:href="#lend13" transform="scale(-3.52,-3.52) "/>
		</marker>
	</defs>
	<g v:mID="22" v:index="4" v:groupContext="foregroundPage">
		<v:userDefs>
			<v:ud v:nameU="msvThemeOrder" v:val="VT0(0):26"/>
		</v:userDefs>
		<title>Page-4</title>
		<v:pageProperties v:drawingScale="0.0393701" v:pageScale="0.0393701" v:drawingUnits="24" v:shadowOffsetX="8.50394"
				v:shadowOffsetY="-8.50394"/>
		<v:layer v:name="Common Icons" v:index="0"/>
		<g id="shape1005-1" v:mID="1005" v:groupContext="shape" transform="translate(29.7638,-243.032)">
			<title>Sheet.1005</title>
			<rect x="0" y="515.906" width="782.362" height="79.3701" class="st1"/>
		</g>
		<g id="shape1000-3" v:mID="1000" v:groupContext="shape" transform="translate(55.2756,-264.291)">
			<title>Sheet.1000</title>
			<desc>Payslip Entity Extractor</desc>
			<v:textBlock v:margins="rect(4,4,4,4)" v:tabSpace="42.5197"/>
			<v:textRect cx="60.9449" cy="576.85" width="121.89" height="36.8504"/>
			<rect x="0" y="558.425" width="121.89" height="36.8504" class="st2"/>
			<text x="4.79" y="580.45" class="st3" v:langID="1033"><v:paragraph v:horizAlign="1"/><v:tabList/>Payslip Entity Extractor</text>		</g>
		<g id="shape1001-6" v:mID="1001" v:groupContext="shape" transform="translate(205.512,-264.291)">
			<title>Sheet.1001</title>
			<desc>Receipt Entity Extractor</desc>
			<v:textBlock v:margins="rect(4,4,4,4)" v:tabSpace="42.5197"/>
			<v:textRect cx="60.9449" cy="576.85" width="121.89" height="36.8504"/>
			<rect x="0" y="558.425" width="121.89" height="36.8504" class="st2"/>
			<text x="27.09" y="573.25" class="st3" v:langID="1033"><v:paragraph v:horizAlign="1"/><v:tabList/>Receipt Entity <tspan
						x="38.64" dy="1.2em" class="st4">Extractor</tspan></text>		</g>
		<g id="shape1002-10" v:mID="1002" v:groupContext="shape" transform="translate(355.748,-264.291)">
			<title>Sheet.1002</title>
			<desc>Invoice Entity Extractor</desc>
			<v:textBlock v:margins="rect(4,4,4,4)" v:tabSpace="42.5197"/>
			<v:textRect cx="60.9449" cy="576.85" width="121.89" height="36.8504"/>
			<rect x="0" y="558.425" width="121.89" height="36.8504" class="st2"/>
			<text x="4.29" y="580.45" class="st3" v:langID="1033"><v:paragraph v:horizAlign="1"/><v:tabList/>Invoice Entity Extractor</text>		</g>
		<g id="shape1003-13" v:mID="1003" v:groupContext="shape" transform="translate(513.071,-264.291)">
			<title>Sheet.1003</title>
			<desc>Validate ABN (ABR)</desc>
			<v:textBlock v:margins="rect(4,4,4,4)" v:tabSpace="42.5197"/>
			<v:textRect cx="60.9449" cy="576.85" width="121.89" height="36.8504"/>
			<rect x="0" y="558.425" width="121.89" height="36.8504" class="st5"/>
			<text x="13.94" y="580.45" class="st3" v:langID="1033"><v:paragraph v:horizAlign="1"/><v:tabList/>Validate ABN (ABR)</text>		</g>
		<g id="shape1004-16" v:mID="1004" v:groupContext="shape" transform="translate(664.724,-264.291)">
			<title>Sheet.1004</title>
			<desc>Geocoder</desc>
			<v:textBlock v:margins="rect(4,4,4,4)" v:tabSpace="42.5197"/>
			<v:textRect cx="60.9449" cy="576.85" width="121.89" height="36.8504"/>
			<rect x="0" y="558.425" width="121.89" height="36.8504" class="st6"/>
			<text x="37.08" y="580.45" class="st3" v:langID="1033"><v:paragraph v:horizAlign="1"/><v:tabList/>Geocoder</text>		</g>
		<g id="shape1006-19" v:mID="1006" v:groupContext="shape" transform="translate(26.9291,-323.661)">
			<title>Sheet.1006</title>
			<desc>Common Services</desc>
			<v:textBlock v:margins="rect(4,4,4,4)" v:tabSpace="42.5197"/>
			<v:textRect cx="83.0866" cy="585.276" width="166.18" height="20"/>
			<rect x="0" y="575.276" width="166.173" height="20" class="st7"/>
			<text x="4" y="588.88" class="st8" v:langID="1033"><v:paragraph/><v:tabList/>Common Services</text>		</g>
		<g id="shape1007-22" v:mID="1007" v:groupContext="shape" transform="translate(63.7795,-89.9606)">
			<title>Sheet.1007</title>
			<desc>App A</desc>
			<v:textBlock v:margins="rect(4,4,4,4)" v:tabSpace="42.5197"/>
			<v:textRect cx="53.8583" cy="571.181" width="107.72" height="48.189"/>
			<rect x="0" y="547.087" width="107.717" height="48.189" class="st2"/>
			<text x="39.25" y="574.78" class="st3" v:langID="1033"><v:paragraph v:horizAlign="1"/><v:tabList/>App A</text>		</g>
		<g id="shape1008-25" v:mID="1008" v:groupContext="shape" transform="translate(212.598,-89.9606)">
			<title>Sheet.1008</title>
			<desc>App B</desc>
			<v:textBlock v:margins="rect(4,4,4,4)" v:tabSpace="42.5197"/>
			<v:textRect cx="53.8583" cy="571.181" width="107.72" height="48.189"/>
			<rect x="0" y="547.087" width="107.717" height="48.189" class="st2"/>
			<text x="39.46" y="574.78" class="st3" v:langID="1033"><v:paragraph v:horizAlign="1"/><v:tabList/>App B</text>		</g>
		<g id="shape1009-28" v:mID="1009" v:groupContext="shape" transform="translate(360,-89.9606)">
			<title>Sheet.1009</title>
			<desc>App C</desc>
			<v:textBlock v:margins="rect(4,4,4,4)" v:tabSpace="42.5197"/>
			<v:textRect cx="53.8583" cy="571.181" width="107.72" height="48.189"/>
			<rect x="0" y="547.087" width="107.717" height="48.189" class="st9"/>
			<text x="39.53" y="574.78" class="st3" v:langID="1033"><v:paragraph v:horizAlign="1"/><v:tabList/>App C</text>		</g>
		<g id="shape1010-31" v:mID="1010" v:groupContext="shape" transform="translate(520.158,-89.9606)">
			<title>Sheet.1010</title>
			<desc>App D</desc>
			<v:textBlock v:margins="rect(4,4,4,4)" v:tabSpace="42.5197"/>
			<v:textRect cx="53.8583" cy="571.181" width="107.72" height="48.189"/>
			<rect x="0" y="547.087" width="107.717" height="48.189" class="st9"/>
			<text x="39.03" y="574.78" class="st3" v:langID="1033"><v:paragraph v:horizAlign="1"/><v:tabList/>App D</text>		</g>
		<g id="shape1011-34" v:mID="1011" v:groupContext="shape" transform="translate(670.394,-89.9606)">
			<title>Sheet.1011</title>
			<desc>App n</desc>
			<v:textBlock v:margins="rect(4,4,4,4)" v:tabSpace="42.5197"/>
			<v:textRect cx="53.8583" cy="571.181" width="107.72" height="48.189"/>
			<rect x="0" y="547.087" width="107.717" height="48.189" class="st9"/>
			<text x="39.57" y="574.78" class="st3" v:langID="1033"><v:paragraph v:horizAlign="1"/><v:tabList/>App n</text>		</g>
		<g id="shape1012-37" v:mID="1012" v:groupContext="shape" transform="translate(-480.472,457.126) rotate(-90)">
			<title>Sheet.1012</title>
			<path d="M0 595.28 L114.52 595.28" class="st10"/>
		</g>
		<g id="shape1013-43" v:mID="1013" v:groupContext="shape" transform="translate(-330.236,457.126) rotate(-90)">
			<title>Sheet.1013</title>
			<path d="M0 595.28 L114.16 595.28" class="st10"/>
		</g>
		<g id="shape1014-48" v:mID="1014" v:groupContext="shape" transform="translate(-115.901,0.174162) rotate(-39.8584)">
			<title>Sheet.1014</title>
			<path d="M0 595.28 L186.26 595.28" class="st10"/>
		</g>
		<g id="shape1015-53" v:mID="1015" v:groupContext="shape" transform="translate(176.851,1004.41) rotate(-156.835)">
			<title>Sheet.1015</title>
			<path d="M0 595.28 L310.1 595.28" class="st10"/>
		</g>
		<g id="shape1016-58" v:mID="1016" v:groupContext="shape" transform="translate(-21.2598,457.126) rotate(-90)">
			<title>Sheet.1016</title>
			<path d="M0 595.28 L115.23 595.28" class="st10"/>
		</g>
		<g id="shape1017-63" v:mID="1017" v:groupContext="shape" transform="translate(128.976,458.898) rotate(-90)">
			<title>Sheet.1017</title>
			<path d="M0 595.28 L118.77 595.28" class="st10"/>
		</g>
		<g id="shape1018-68" v:mID="1018" v:groupContext="shape" transform="translate(203.078,922.699) rotate(-141.454)">
			<title>Sheet.1018</title>
			<path d="M0 595.28 L191.22 595.28" class="st10"/>
		</g>
		<g id="shape1019-73" v:mID="1019" v:groupContext="shape" transform="translate(29.7638,-72.9528)">
			<title>Sheet.1019</title>
			<rect x="0" y="515.906" width="782.362" height="79.3701" class="st1"/>
		</g>
		<g id="shape1020-75" v:mID="1020" v:groupContext="shape" transform="translate(29.7638,-150.827)">
			<title>Sheet.1020</title>
			<desc>Enterprise Apps</desc>
			<v:textBlock v:margins="rect(4,4,4,4)" v:tabSpace="42.5197"/>
			<v:textRect cx="83.0866" cy="585.276" width="166.18" height="20"/>
			<rect x="0" y="575.276" width="166.173" height="20" class="st7"/>
			<text x="4" y="588.88" class="st8" v:langID="1033"><v:paragraph/><v:tabList/>Enterprise Apps</text>		</g>
		<g id="group1021-78" transform="translate(266.457,-404.606)" v:mID="1021" v:groupContext="group">
			<title>Cognitive Services.1009.1021</title>
			<g id="shape1022-79" v:mID="1022" v:groupContext="shape">
				<title>Sheet.1022</title>
				<path d="M51.95 583.71 A11.5448 11.5448 -180 0 0 41.82 572.51 A14.7196 14.7196 -180 0 0 26.67 558.43 A15.1525 15.1525
							 -180 0 0 12.18 568.18 A13.8538 13.8538 -180 0 0 -0 581.66 A14.1424 14.1424 -180 0 0 14.63 595.25 L15.9
							 595.25 L39.6 595.25 A2.25124 2.25124 -180 0 0 40.23 595.25 A11.8334 11.8334 -180 0 0 51.95 583.71 Z"
						class="st12"/>
			</g>
			<g id="shape1023-83" v:mID="1023" v:groupContext="shape" transform="translate(6.89193,-0.022499)">
				<title>Sheet.1023</title>
				<path d="M8.75 580.87 L6.21 580.87 A3.14596 3.14596 -180 1 0 6.21 582.29 L8.75 582.29 a0.57724 0.57724 0 0 1 0.57724
							 0.57724 L9.33 595.28 L10.74 595.28 L10.74 582.86 A1.99148 1.99148 -180 0 0 8.75 580.87 ZM3.12 583.41
							 A1.84717 1.84717 0 1 1 4.97 581.57 A1.84717 1.84717 0 0 1 3.12 583.41 Z" class="st13"/>
			</g>
			<g id="shape1024-85" v:mID="1024" v:groupContext="shape" transform="translate(17.3172,-8.40456)">
				<title>Sheet.1024</title>
				<path d="M8.49 589.89 L8.49 587 A2.02034 2.02034 -180 0 0 6.47 584.98 L1.99 584.98 a0.57724 0.57724 0 0 1 -0.57724
							 -0.57724 L1.41 569.08 L0.75 569.43 L0 569.83 L0 584.26 A1.99148 1.99148 -180 0 0 1.99 586.25 L6.47 586.25
							 a0.606102 0.606102 0 0 1 0.606102 0.606102 L7.07 589.75 A3.11709 3.11709 -180 0 0 4.62 592.81 A3.14596
							 3.14596 -180 1 0 8.49 589.75 L8.49 589.89 ZM7.76 594.8 A1.84717 1.84717 0 1 1 9.61 592.95 A1.84717 1.84717
							 0 0 1 7.76 594.8 Z" class="st14"/>
			</g>
			<g id="shape1025-87" v:mID="1025" v:groupContext="shape" transform="translate(24.3427,-0.022499)">
				<title>Sheet.1025</title>
				<path d="M17.59 575.42 A3.14596 3.14596 -180 0 0 16.87 581.62 L16.87 582.2 a0.606102 0.606102 0 0 1 -0.606102 0.606102
							 L10.49 582.81 L10.49 572.65 A1.99148 1.99148 -180 0 0 8.5 570.66 L5.53 570.66 A3.11709 3.11709 -180
							 0 0 2.47 568.2 A3.14596 3.14596 -180 1 0 5.53 572.07 L8.62 572.07 a0.57724 0.57724 0 0 1 0.57724 0.57724
							 L9.19 595.28 L10.61 595.28 L10.61 584.22 L16.38 584.22 A2.02034 2.02034 -180 0 0 18.4 582.2 L18.4 581.62
							 A3.14596 3.14596 -180 0 0 20.86 578.56 A3.14596 3.14596 -180 0 0 17.59 575.42 ZM2.47 573.2 A1.84717
							 1.84717 0 1 1 4.32 571.35 A1.84717 1.84717 0 0 1 2.47 573.2 ZM17.59 580.41 A1.84717 1.84717 0 1 1 19.41
							 578.56 A1.84717 1.84717 0 0 1 17.59 580.41 Z" class="st13"/>
			</g>
		</g>
		<g id="group1026-89" transform="translate(157.571,-403.583)" v:mID="1026" v:groupContext="group">
			<title>Form Recognizer.1026</title>
			<g id="shape1027-90" v:mID="1027" v:groupContext="shape" transform="translate(20.1399,-12.4561)">
				<title>Sheet.1027</title>
				<path d="M3.25 592.03 L0 592.03 L0 595.28 L3.25 595.28 L3.25 592.03 Z" class="st15"/>
			</g>
			<g id="shape1028-92" v:mID="1028" v:groupContext="shape" transform="translate(20.1399,-6.58137)">
				<title>Sheet.1028</title>
				<path d="M3.25 592.03 L0 592.03 L0 595.28 L3.25 595.28 L3.25 592.03 Z" class="st15"/>
			</g>
			<g id="shape1029-94" v:mID="1029" v:groupContext="shape" transform="translate(25.4784,-12.4561)">
				<title>Sheet.1029</title>
				<path d="M3.25 592.03 L0 592.03 L0 595.28 L3.25 595.28 L3.25 592.03 Z" class="st15"/>
			</g>
			<g id="shape1030-96" v:mID="1030" v:groupContext="shape" transform="translate(25.4784,-6.58137)">
				<title>Sheet.1030</title>
				<path d="M3.25 592.03 L0 592.03 L0 595.28 L3.25 595.28 L3.25 592.03 Z" class="st15"/>
			</g>
			<g id="shape1031-98" v:mID="1031" v:groupContext="shape" transform="translate(30.7299,-12.4561)">
				<title>Sheet.1031</title>
				<path d="M3.25 592.03 L0 592.03 L0 595.28 L3.25 595.28 L3.25 592.03 Z" class="st15"/>
			</g>
			<g id="shape1032-100" v:mID="1032" v:groupContext="shape" transform="translate(30.7299,-6.58137)">
				<title>Sheet.1032</title>
				<path d="M3.25 592.03 L0 592.03 L0 595.28 L3.25 595.28 L3.25 592.03 Z" class="st15"/>
			</g>
			<g id="shape1033-102" v:mID="1033" v:groupContext="shape" transform="translate(10.7642,-2.27374E-13)">
				<title>Sheet.1033</title>
				<path d="M19.52 573.13 C19.4 573.08 19.23 573.02 19.06 572.96 C17.65 572.48 14.74 571.8 9.8 572.06 C4.86 572.31 0
							 573.39 0 573.39 C0 573.39 1.1 579.97 2.57 583.27 C4.01 586.46 4.89 588.47 6.24 590.19 C8.64 593.47 11.86
							 595.28 15.85 595.28 C22.12 595.28 27.23 590.19 27.23 583.89 C27.26 578.92 24.04 574.66 19.52 573.13
							 ZM15.9 593.84 C10.42 593.84 5.99 589.4 5.99 583.95 C5.99 578.47 10.42 574.04 15.9 574.04 C21.38 574.04
							 25.82 578.47 25.82 583.95 C25.79 589.4 21.35 593.84 15.9 593.84 Z" class="st15"/>
			</g>
			<g id="shape1034-104" v:mID="1034" v:groupContext="shape" transform="translate(0,-4.48925)">
				<title>Sheet.1034</title>
				<path d="M27.59 567.37 L22.2 561.89 L0 561.89 L0 595.28 L15.45 595.28 C15.2 594.85 14.88 594.34 14.74 594 C14.66
							 593.84 14.57 593.64 14.52 593.47 L1.72 593.47 L1.72 563.56 L21.21 563.56 L21.21 568.19 L25.98 568.19
							 L25.98 575.17 L27.59 575.42 L27.59 567.37 Z" class="st15"/>
			</g>
			<g id="shape1035-106" v:mID="1035" v:groupContext="shape" transform="translate(5.45307,-26.2668)">
				<title>Sheet.1035</title>
				<path d="M16.66 595.28 L0.82 595.28 C0.37 595.28 0 594.91 0 594.46 C0 594 0.37 593.64 0.82 593.64 L16.66 593.64 C17.12
							 593.64 17.48 594 17.48 594.46 C17.48 594.91 17.12 595.28 16.66 595.28 Z" class="st15"/>
			</g>
			<g id="shape1036-108" v:mID="1036" v:groupContext="shape" transform="translate(5.45307,-10.2825)">
				<title>Sheet.1036</title>
				<path d="M0.82 593.64 C0.37 593.64 0 594 0 594.46 C0 594.91 0.37 595.28 0.82 595.28 L6.95 595.28 L6.27 593.61 L0.82
							 593.61 L0.82 593.64 Z" class="st15"/>
			</g>
			<g id="shape1037-110" v:mID="1037" v:groupContext="shape" transform="translate(5.45307,-15.676)">
				<title>Sheet.1037</title>
				<path d="M0.82 593.64 C0.37 593.64 0 594 0 594.46 C0 594.91 0.37 595.28 0.82 595.28 L5.11 595.28 L4.69 593.61 L0.82
							 593.61 L0.82 593.64 Z" class="st15"/>
			</g>
			<g id="shape1038-112" v:mID="1038" v:groupContext="shape" transform="translate(5.45307,-21.0146)">
				<title>Sheet.1038</title>
				<path d="M0.82 593.64 C0.37 593.64 0 594 0 594.46 C0 594.91 0.37 595.28 0.82 595.28 L3.95 595.28 L3.78 593.61 L0.82
							 593.61 L0.82 593.64 Z" class="st15"/>
			</g>
		</g>
		<g id="shape1039-114" v:mID="1039" v:groupContext="shape" transform="translate(28.3465,-394.244)">
			<title>Sheet.1039</title>
			<rect x="0" y="515.906" width="782.362" height="79.3701" class="st1"/>
		</g>
		<g id="shape1040-116" v:mID="1040" v:groupContext="shape" transform="translate(28.3465,-473.976)">
			<title>Sheet.1040</title>
			<desc>Base Capability Zone</desc>
			<v:textBlock v:margins="rect(4,4,4,4)" v:tabSpace="42.5197"/>
			<v:textRect cx="83.0866" cy="585.276" width="166.18" height="20"/>
			<rect x="0" y="575.276" width="166.173" height="20" class="st7"/>
			<text x="4" y="588.88" class="st8" v:langID="1033"><v:paragraph/><v:tabList/>Base Capability Zone</text>		</g>
		<g id="shape1041-119" v:mID="1041" v:groupContext="shape" transform="translate(-401.052,-1.08974) rotate(-60.0084)">
			<title>Sheet.1041</title>
			<path d="M0 595.28 L110.64 595.28" class="st10"/>
		</g>
		<g id="shape1042-124" v:mID="1042" v:groupContext="shape" transform="translate(-192.639,-214.402) rotate(-31.3191)">
			<title>Sheet.1042</title>
			<path d="M0 595.28 L188.53 595.28" class="st10"/>
		</g>
		<g id="group1043-129" transform="translate(384.342,-402.486)" v:mID="1043" v:groupContext="group">
			<v:userDefs/>
			<title>API: Text Analytics API.1043</title>
			<desc>Created with Sketch.</desc>
			<g id="group1044-130" v:mID="1044" v:groupContext="group">
				<title>Text-Analytics-API</title>
				<g id="shape1045-131" v:mID="1045" v:groupContext="shape">
					<title>Rectangle-3-Copy-14</title>
					<rect x="0" y="557.256" width="38.0199" height="38.0199" class="st16"/>
				</g>
				<g id="shape1046-133" v:mID="1046" v:groupContext="shape" transform="translate(8.87132,-11.406)">
					<title>Combined-Shape</title>
					<path d="M0 581.33 L0 579.65 L19.85 579.65 L19.85 581.33 L0 581.33 ZM0 585.98 L0 584.29 L19.85 584.29 L19.85
								 585.98 L0 585.98 ZM2.96 590.63 L2.96 588.94 L22.81 588.94 L22.81 590.63 L2.96 590.63 ZM0 595.28
								 L0 593.59 L19.85 593.59 L19.85 595.28 L0 595.28 Z" class="st17"/>
				</g>
			</g>
		</g>
		<g id="shape1047-135" v:mID="1047" v:groupContext="shape" transform="translate(59.8747,594.603) rotate(-120.315)">
			<title>Sheet.1047</title>
			<path d="M0 595.28 L107.45 595.28" class="st10"/>
		</g>
		<g id="shape1048-140" v:mID="1048" v:groupContext="shape" transform="translate(116.22,-447.717)">
			<title>Sheet.1048</title>
			<desc>Form Recognizer</desc>
			<v:textBlock v:margins="rect(4,4,4,4)" v:tabSpace="42.5197"/>
			<v:textRect cx="53.8583" cy="585.276" width="107.72" height="20"/>
			<rect x="0" y="575.276" width="107.717" height="20" class="st7"/>
			<text x="12.95" y="588.88" class="st18" v:langID="1033"><v:paragraph v:horizAlign="1"/><v:tabList/>Form Recognizer</text>		</g>
		<g id="shape1049-143" v:mID="1049" v:groupContext="shape" transform="translate(213.669,-447.717)">
			<title>Sheet.1049</title>
			<desc>Cognitive Services</desc>
			<v:textBlock v:margins="rect(4,4,4,4)" v:tabSpace="42.5197"/>
			<v:textRect cx="76" cy="585.276" width="152.01" height="20"/>
			<rect x="0" y="575.276" width="152" height="20" class="st7"/>
			<text x="32.05" y="588.88" class="st18" v:langID="1033"><v:paragraph v:horizAlign="1"/><v:tabList/>Cognitive Services</text>		</g>
		<g id="shape1050-146" v:mID="1050" v:groupContext="shape" transform="translate(351.496,-447.717)">
			<title>Sheet.1050</title>
			<desc>Text Analytics</desc>
			<v:textBlock v:margins="rect(4,4,4,4)" v:tabSpace="42.5197"/>
			<v:textRect cx="53.8583" cy="585.276" width="107.72" height="20"/>
			<rect x="0" y="575.276" width="107.717" height="20" class="st7"/>
			<text x="20.12" y="588.88" class="st18" v:langID="1033"><v:paragraph v:horizAlign="1"/><v:tabList/>Text Analytics</text>		</g>
		<g id="shape1051-149" v:mID="1051" v:groupContext="shape" transform="translate(-209.781,664.137) rotate(-128.431)">
			<title>Sheet.1051</title>
			<path d="M0 595.28 L120.46 595.28" class="st10"/>
		</g>
		<g id="shape1052-154" v:mID="1052" v:groupContext="shape" transform="translate(26.3374,744.778) rotate(-139.203)">
			<title>Sheet.1052</title>
			<path d="M0 595.28 L147.83 595.28" class="st10"/>
		</g>
		<g id="shape1053-159" v:mID="1053" v:groupContext="shape" transform="translate(-309.797,115.367) rotate(-72.5404)">
			<title>Sheet.1053</title>
			<path d="M0 595.28 L97.75 595.28" class="st10"/>
		</g>
		<g id="shape1054-164" v:mID="1054" v:groupContext="shape" transform="translate(179.422,840.56) rotate(-156.889)">
			<title>Sheet.1054</title>
			<path d="M0 595.28 L248.17 595.28" class="st10"/>
		</g>
		<g id="group1055-169" transform="translate(493.228,-402.919)" v:mID="1055" v:groupContext="group">
			<title>Swagger.1055</title>
			<g id="shape1056-170" v:mID="1056" v:groupContext="shape">
				<title>Sheet.1056</title>
				<path d="M0 576.48 C0 566.11 8.51 557.69 19.01 557.69 C29.53 557.69 38.02 566.11 38.02 576.48 C38.02 586.88 29.53
							 595.28 19.01 595.28 C8.51 595.28 0 586.88 0 576.48 Z" class="st19"/>
			</g>
			<g id="shape1057-172" v:mID="1057" v:groupContext="shape" transform="translate(11.9507,-17.0461)">
				<title>Sheet.1057</title>
				<path d="M3.33 593.61 C3.33 594.51 2.56 595.28 1.66 595.28 C0.69 595.28 -0 594.51 0 593.61 C-0 592.71 0.76 591.95
							 1.66 591.95 C2.56 591.95 3.33 592.64 3.33 593.61 Z" class="st20"/>
			</g>
			<g id="shape1058-174" v:mID="1058" v:groupContext="shape" transform="translate(16.9409,-17.0461)">
				<title>Sheet.1058</title>
				<ellipse cx="1.66337" cy="593.612" rx="1.66337" ry="1.66337" class="st20"/>
			</g>
			<g id="shape1059-176" v:mID="1059" v:groupContext="shape" transform="translate(21.931,-17.0461)">
				<title>Sheet.1059</title>
				<ellipse cx="1.66337" cy="593.612" rx="1.66337" ry="1.66337" class="st20"/>
			</g>
			<g id="shape1060-178" v:mID="1060" v:groupContext="shape" transform="translate(6.24775,-7.7773)">
				<title>Sheet.1060</title>
				<path d="M1.78 577.86 L1.78 580.66 C1.78 582.26 1.19 583.06 0 583.06 L0 585.37 C1.19 585.37 1.78 586.14 1.78 587.68
							 L1.78 590.69 C1.78 592.27 2.1 593.4 2.75 594.09 C3.49 594.88 4.8 595.28 6.65 595.28 L6.65 592.93 C5.99
							 592.93 5.51 592.76 5.22 592.41 C4.93 592.07 4.78 591.49 4.78 590.67 L4.78 588.09 C4.78 586.04 4.18 584.76
							 2.97 584.24 L2.97 584.19 C4.18 583.66 4.78 582.39 4.78 580.38 L4.78 577.71 C4.78 576.25 5.4 575.52 6.65
							 575.52 L6.65 573.18 C4.83 573.18 3.54 573.57 2.79 574.36 C2.12 575.07 1.78 576.23 1.78 577.86 Z"
						class="st20"/>
			</g>
			<g id="shape1061-180" v:mID="1061" v:groupContext="shape" transform="translate(32.317,1160.67) rotate(180)">
				<title>Sheet.1061</title>
				<path d="M1.78 577.86 L1.78 580.66 C1.78 582.26 1.19 583.06 0 583.06 L0 585.37 C1.19 585.37 1.78 586.14 1.78 587.68
							 L1.78 590.69 C1.78 592.27 2.1 593.4 2.75 594.09 C3.49 594.88 4.8 595.28 6.65 595.28 L6.65 592.93 C5.99
							 592.93 5.51 592.76 5.22 592.41 C4.93 592.07 4.78 591.49 4.78 590.67 L4.78 588.09 C4.78 586.04 4.18 584.76
							 2.97 584.24 L2.97 584.19 C4.18 583.66 4.78 582.39 4.78 580.38 L4.78 577.71 C4.78 576.25 5.4 575.52 6.65
							 575.52 L6.65 573.18 C4.83 573.18 3.54 573.57 2.79 574.36 C2.12 575.07 1.78 576.23 1.78 577.86 Z"
						class="st20"/>
			</g>
		</g>
		<g id="shape1062-182" v:mID="1062" v:groupContext="shape" transform="translate(458.478,-447.717)">
			<title>Sheet.1062</title>
			<desc>External ABR API</desc>
			<v:textBlock v:margins="rect(4,4,4,4)" v:tabSpace="42.5197"/>
			<v:textRect cx="53.8583" cy="585.276" width="107.72" height="20"/>
			<rect x="0" y="575.276" width="107.717" height="20" class="st7"/>
			<text x="13.05" y="588.88" class="st18" v:langID="1033"><v:paragraph v:horizAlign="1"/><v:tabList/>External ABR API</text>		</g>
		<g id="shape1063-185" v:mID="1063" v:groupContext="shape" transform="translate(299.683,712.818) rotate(-134.696)">
			<title>Sheet.1063</title>
			<path d="M0 595.28 L133.25 595.28" class="st10"/>
		</g>
		<g id="shape1064-190" v:mID="1064" v:groupContext="shape" transform="translate(18,-538.583)">
			<title>Sheet.1064</title>
			<desc>Enterprise Common Service Pattern</desc>
			<v:textBlock v:margins="rect(4,4,4,4)" v:tabSpace="42.5197"/>
			<v:textRect cx="163.913" cy="585.276" width="327.83" height="20"/>
			<rect x="0" y="575.276" width="327.827" height="20" class="st7"/>
			<text x="4" y="590.68" class="st21" v:langID="1033"><v:paragraph/><v:tabList/>Enterprise Common Service Pattern</text>		</g>
		<g id="group1065-193" transform="translate(597.975,-402.919)" v:mID="1065" v:groupContext="group" v:layerMember="0">
			<v:userDefs>
				<v:ud v:nameU="visVersion" v:prompt="" v:val="VT0(17):26"/>
				<v:ud v:nameU="visAltText" v:prompt="" v:val="VT4(Map)"/>
				<v:ud v:nameU="visAltDescription" v:prompt="" v:val="VT4(Map Icon.)"/>
				<v:ud v:nameU="Font" v:prompt="" v:val="VT0(243):26"/>
			</v:userDefs>
			<title>Map.1065</title>
			<g id="shape1066-194" v:mID="1066" v:groupContext="shape" v:layerMember="0" transform="translate(28.0017,-18.6983)">
				<title>Sheet.1066</title>
				<path d="M6.22 585.47 C4.85 585.47 3.71 584.34 3.76 582.92 C3.76 581.56 4.9 580.43 6.27 580.43 C7.64 580.43 8.78
							 581.56 8.78 582.92 C8.78 583.6 8.5 584.23 8.04 584.68 C7.53 585.19 6.9 585.47 6.22 585.47 ZM3.76 577.6
							 C2.51 578.05 1.54 579.01 0.91 580.15 C0.11 581.68 0 583.43 0.63 585.02 L3.36 590.91 L5.19 594.65 C5.36
							 595.05 5.76 595.28 6.22 595.28 C6.67 595.28 7.07 595.05 7.24 594.65 L9.07 590.91 L11.81 585.08 C12.09
							 584.4 12.2 583.66 12.2 582.92 C12.2 578.96 8.1 575.95 3.76 577.6 Z" class="st22"/>
			</g>
			<g id="shape1067-196" v:mID="1067" v:groupContext="shape" v:layerMember="0">
				<title>Sheet.1067</title>
				<path d="M21.67 590.91 L12.55 586.38 L12.55 567.91 L21.67 572.44 L21.67 590.91 ZM10.27 586.38 L3.42 589.78 L3.42
							 571.31 L10.27 567.91 L10.27 586.38 ZM41.86 567.34 L40.43 570.4 L42.2 571.31 L42.2 589.78 L35.36 586.38
							 L35.36 578.84 L33.08 578.84 L33.08 586.38 L23.95 590.91 L23.95 572.44 L28 570.4 L26.58 567.34 L22.81
							 569.21 L11.41 563.55 L0 569.21 L0 595.28 L11.41 589.61 L22.81 595.28 L34.22 589.61 L45.62 595.28 L45.62
							 569.21 L41.86 567.34 Z" class="st22"/>
			</g>
		</g>
		<g id="shape1068-198" v:mID="1068" v:groupContext="shape" transform="translate(569.764,-447.717)">
			<title>Sheet.1068</title>
			<desc>Azure Maps</desc>
			<v:textBlock v:margins="rect(4,4,4,4)" v:tabSpace="42.5197"/>
			<v:textRect cx="53.8583" cy="585.276" width="107.72" height="20"/>
			<rect x="0" y="575.276" width="107.717" height="20" class="st7"/>
			<text x="24.93" y="588.88" class="st18" v:langID="1033"><v:paragraph v:horizAlign="1"/><v:tabList/>Azure Maps</text>		</g>
		<g id="shape1069-201" v:mID="1069" v:groupContext="shape" transform="translate(267.826,805.472) rotate(-149.204)">
			<title>Sheet.1069</title>
			<path d="M0 595.28 L187.38 595.28" class="st10"/>
		</g>
		<g id="shape1070-206" v:mID="1070" v:groupContext="shape" transform="translate(14.1732,-360.105)">
			<title>Sheet.1070</title>
			<path d="M0 595.28 L816.27 595.28" class="st23"/>
		</g>
	</g>
</svg>
